<?xml version="1.0" encoding="UTF-8" standalone="no"?><!DOCTYPE svg PUBLIC "-//W3C//DTD SVG 1.1//EN" "http://www.w3.org/Graphics/SVG/1.1/DTD/svg11.dtd"><svg width="100%" height="100%" viewBox="0 0 834 834" version="1.1" xmlns="http://www.w3.org/2000/svg" xmlns:xlink="http://www.w3.org/1999/xlink" xml:space="preserve" xmlns:serif="http://www.serif.com/" style="fill-rule:evenodd;clip-rule:evenodd;stroke-linejoin:round;stroke-miterlimit:2;"><g><g><circle cx="416.667" cy="222.597" r="40.102" style="fill:#f93800;"/><path d="M717.874,604.805l-151.707,-317.097l-21.922,-45.843l-0.101,-0.204l-50.842,-0l-0.1,0.21l-21.936,45.837l-3.595,7.515l-25.513,53.347l-25.49,53.254l-25.525,53.35l-71.586,149.631l-153.06,-0l148.118,-309.588l25.48,53.262l-100.602,210.272l51.043,-0l75.088,-156.932l25.513,-53.34l-25.513,-53.346l-3.556,-7.425l-21.928,-45.839l-0.101,-0.208l-50.842,-0l-0.105,0.21l-21.931,45.837l-151.71,317.097l-22.025,46.033l255.147,-0l22.02,-46.033l46.075,-96.3l25.523,-53.331l25.48,-53.264l25.526,-53.34l25.527,-53.353l148.113,309.588l-51.047,-0l-0.014,-0.012l-29.005,0l-22.028,0.012l-50.968,-0l-20.573,-42.994l16.491,-34.477l8.993,-18.794l24.025,50.22l51.04,-0l-49.537,-103.558l-25.528,-53.343l-8.993,18.8l-16.528,34.543l-8.989,18.797l-16.488,34.473l-25.526,53.339l20.573,42.994l22.024,46.033l51.045,-0l50.967,-0.008l153.136,0l-22.033,-46.025Z" style="fill:url(#_Linear1);"/></g></g><defs><linearGradient id="_Linear1" x1="0" y1="0" x2="1" y2="0" gradientUnits="userSpaceOnUse" gradientTransform="matrix(373.937,-418.51,418.51,373.937,223.569,771.914)"><stop offset="0" style="stop-color:#d32654;stop-opacity:1"/><stop offset="1" style="stop-color:#eb5434;stop-opacity:1"/></linearGradient></defs></svg>