<?xml version="1.0" encoding="UTF-8" standalone="no"?><!DOCTYPE svg PUBLIC "-//W3C//DTD SVG 1.1//EN" "http://www.w3.org/Graphics/SVG/1.1/DTD/svg11.dtd"><svg width="100%" height="100%" viewBox="0 0 584 142" version="1.1" xmlns="http://www.w3.org/2000/svg" xmlns:xlink="http://www.w3.org/1999/xlink" xml:space="preserve" xmlns:serif="http://www.serif.com/" style="fill-rule:evenodd;clip-rule:evenodd;stroke-linejoin:round;stroke-miterlimit:2;"><g><g><circle cx="99.541" cy="21.773" r="10.138" style="fill:#f93800;"/><path d="M175.685,118.394l-38.351,-80.161l-5.542,-11.589l-0.025,-0.052l-12.853,0l-0.025,0.054l-5.545,11.587l-0.909,1.9l-6.45,13.486l-6.444,13.462l-6.452,13.487l-18.097,37.826l-38.693,0l37.444,-78.263l6.441,13.465l-25.432,53.156l12.903,-0l18.982,-39.672l6.45,-13.484l-6.45,-13.486l-0.898,-1.877l-5.544,-11.588l-0.025,-0.053l-12.853,0l-0.027,0.054l-5.544,11.587l-38.351,80.161l-5.568,11.637l64.5,0l5.567,-11.637l11.647,-24.344l6.452,-13.482l6.442,-13.465l6.453,-13.484l6.453,-13.488l37.442,78.263l-12.904,0l-0.004,-0.003l-7.332,0l-5.569,0.003l-12.884,0l-5.201,-10.869l4.169,-8.715l2.273,-4.751l6.073,12.695l12.903,0l-12.522,-26.179l-6.454,-13.485l-2.273,4.752l-4.179,8.733l-2.272,4.752l-4.168,8.714l-6.453,13.484l5.201,10.869l5.567,11.637l12.905,0l12.884,-0.002l38.712,0l-5.57,-11.635Z" style="fill:url(#_Linear1);"/></g></g><g><text x="530.456px" y="70.846px" style="font-family:'Bauhaus93', 'Bauhaus 93', fantasy;font-size:43.447px;fill:#fff;">©</text><text x="217.984px" y="99.126px" style="font-family:'Bauhaus93', 'Bauhaus 93', fantasy;font-size:82.696px;fill:#fff;">MC LABS</text></g><defs><linearGradient id="_Linear1" x1="0" y1="0" x2="1" y2="0" gradientUnits="userSpaceOnUse" gradientTransform="matrix(94.5302,-105.798,105.798,94.5302,50.7263,160.639)"><stop offset="0" style="stop-color:#d32654;stop-opacity:1"/><stop offset="1" style="stop-color:#eb5434;stop-opacity:1"/></linearGradient></defs></svg>